<svg xmlns="http://www.w3.org/2000/svg" width="20" height="20" viewBox="0 0 20 20">
    <defs>
        <filter id="a1zrwe5xoa" color-interpolation-filters="auto">
            <feColorMatrix in="SourceGraphic" values="0 0 0 0 0.027451 0 0 0 0 0.368627 0 0 0 0 0.329412 0 0 0 1.000000 0"/>
        </filter>
    </defs>
    <g fill="none" fill-rule="evenodd">
        <g>
            <g filter="url(#a1zrwe5xoa)" transform="translate(-1383.000000, -64.000000) translate(1337.000000, 64.000000)">
                <g fill="#1E1E19">
                    <path d="M16.721 2.622c4.063 3.723 4.338 10.037.615 14.1-3.205 3.497-8.329 4.186-12.284 1.937l-.787.248L.795 20l.787-3.552.178-.806c-2.585-3.745-2.343-8.909.862-12.406 3.723-4.062 10.037-4.337 14.1-.614zM6.575 5.166s-.39.22-.76.707c-.45.52-.61 1.18-.548 1.906-.266 2.897 4.11 7.444 6.968 7.167.905.08 1.714-.211 2.283-1.024.258-.53.199-.842.118-1.002-.235-.467-1.782-.978-2.288-1.184-.3-.122-.973.324-1.158.571-.185.247-.507.075-.507.075-.726-.364-2.652-2.487-2.945-3.247 0 0-.14-.337.123-.498.264-.16.773-.788.68-1.098-.092-.31-.831-2.277-.831-2.277s-.252-.425-1.135-.096z" transform="translate(46.000000, 0.000000)"/>
                </g>
            </g>
        </g>
    </g>
</svg>
